<svg xmlns="http://www.w3.org/2000/svg" xmlns:xlink="http://www.w3.org/1999/xlink" width="40" zoomAndPan="magnify" viewBox="0 0 30 30.000001" height="40" preserveAspectRatio="xMidYMid meet" version="1.0"><defs><clipPath id="507be9484e"><path d="M 2.007812 1.523438 L 28 1.523438 L 28 27.652344 L 2.007812 27.652344 Z M 2.007812 1.523438 " clip-rule="nonzero"/></clipPath></defs><g clip-path="url(#507be9484e)"><path fill="#5ae3ff" d="M 15 27.503906 C 22.15625 27.503906 27.988281 21.671875 27.988281 14.515625 C 27.988281 7.359375 22.15625 1.523438 15 1.523438 C 7.84375 1.523438 2.007812 7.359375 2.007812 14.515625 C 2.007812 21.667969 7.84375 27.503906 15 27.503906 Z M 15 27.503906 " fill-opacity="1" fill-rule="evenodd"/></g><path fill="#273e76" d="M 7.097656 7.1875 L 7.949219 7.1875 L 7.949219 8.320312 C 7.949219 8.441406 8.046875 8.539062 8.167969 8.539062 L 9.441406 8.539062 C 9.5625 8.539062 9.660156 8.441406 9.660156 8.320312 L 9.660156 7.1875 L 10.890625 7.1875 L 10.890625 8.320312 C 10.890625 8.441406 10.988281 8.539062 11.109375 8.539062 L 12.382812 8.539062 C 12.503906 8.539062 12.601562 8.441406 12.601562 8.320312 L 12.601562 7.1875 L 13.832031 7.1875 L 13.832031 8.320312 C 13.832031 8.441406 13.929688 8.539062 14.050781 8.539062 L 15.324219 8.539062 C 15.445312 8.539062 15.542969 8.441406 15.542969 8.320312 L 15.542969 7.1875 L 16.773438 7.1875 L 16.773438 8.320312 C 16.773438 8.441406 16.871094 8.539062 16.992188 8.539062 L 18.269531 8.539062 C 18.386719 8.539062 18.488281 8.441406 18.488281 8.320312 L 18.488281 7.1875 L 19.335938 7.1875 C 19.804688 7.1875 20.1875 7.566406 20.1875 8.035156 L 20.1875 9.367188 L 6.25 9.367188 L 6.25 8.035156 C 6.25 7.566406 6.632812 7.1875 7.097656 7.1875 Z M 16.984375 16.019531 L 18.140625 16.019531 L 18.140625 16.359375 C 18.34375 16.300781 18.558594 16.265625 18.785156 16.253906 C 18.25 15.878906 17.875 15.296875 17.773438 14.621094 L 16.984375 14.621094 L 16.984375 13.46875 L 17.878906 13.46875 C 18.207031 12.511719 19.117188 11.824219 20.1875 11.824219 L 20.1875 9.804688 L 6.25 9.804688 L 6.25 17.652344 C 6.25 18.121094 6.632812 18.503906 7.097656 18.503906 L 13.3125 18.503906 C 13.824219 17.921875 14.578125 17.558594 15.414062 17.558594 C 15.785156 17.558594 16.140625 17.628906 16.464844 17.761719 C 16.601562 17.496094 16.777344 17.25 16.984375 17.042969 Z M 14.089844 16.019531 L 15.242188 16.019531 L 15.242188 17.171875 L 14.089844 17.171875 Z M 11.191406 16.019531 L 12.347656 16.019531 L 12.347656 17.171875 L 11.191406 17.171875 Z M 8.296875 16.019531 L 9.449219 16.019531 L 9.449219 17.171875 L 8.296875 17.171875 Z M 14.089844 13.46875 L 15.242188 13.46875 L 15.242188 14.621094 L 14.089844 14.621094 Z M 11.191406 13.46875 L 12.347656 13.46875 L 12.347656 14.621094 L 11.191406 14.621094 Z M 8.640625 14.542969 C 8.550781 14.621094 8.410156 14.613281 8.332031 14.523438 C 8.25 14.429688 8.261719 14.292969 8.351562 14.214844 L 8.542969 14.046875 L 8.351562 13.875 C 8.261719 13.796875 8.25 13.660156 8.332031 13.566406 C 8.410156 13.476562 8.550781 13.46875 8.640625 13.546875 L 8.875 13.753906 L 9.105469 13.546875 C 9.195312 13.46875 9.335938 13.476562 9.414062 13.566406 C 9.496094 13.660156 9.488281 13.796875 9.394531 13.875 L 9.203125 14.046875 L 9.394531 14.214844 C 9.488281 14.292969 9.496094 14.429688 9.414062 14.523438 C 9.335938 14.613281 9.195312 14.621094 9.105469 14.542969 L 8.875 14.335938 Z M 16.851562 11.503906 C 16.785156 11.40625 16.808594 11.269531 16.910156 11.203125 C 17.007812 11.132812 17.144531 11.160156 17.210938 11.257812 L 17.378906 11.5 L 17.949219 10.996094 C 18.039062 10.917969 18.175781 10.925781 18.253906 11.015625 C 18.335938 11.109375 18.328125 11.246094 18.234375 11.324219 L 17.480469 11.988281 C 17.472656 11.996094 17.464844 12 17.457031 12.007812 C 17.359375 12.074219 17.222656 12.050781 17.15625 11.949219 Z M 13.957031 11.503906 C 13.886719 11.40625 13.914062 11.269531 14.011719 11.203125 C 14.113281 11.132812 14.25 11.160156 14.316406 11.257812 L 14.480469 11.5 L 15.050781 10.996094 C 15.140625 10.917969 15.28125 10.925781 15.359375 11.015625 C 15.441406 11.109375 15.429688 11.246094 15.339844 11.324219 L 14.585938 11.988281 C 14.578125 11.996094 14.570312 12 14.5625 12.007812 C 14.464844 12.074219 14.328125 12.050781 14.257812 11.949219 Z M 11.058594 11.503906 C 10.992188 11.40625 11.015625 11.269531 11.117188 11.203125 C 11.214844 11.132812 11.351562 11.160156 11.417969 11.257812 L 11.585938 11.5 L 12.15625 10.996094 C 12.246094 10.917969 12.382812 10.925781 12.464844 11.015625 C 12.542969 11.109375 12.535156 11.246094 12.445312 11.324219 L 11.6875 11.988281 C 11.679688 11.996094 11.675781 12 11.667969 12.007812 C 11.566406 12.074219 11.429688 12.050781 11.363281 11.949219 Z M 8.164062 11.503906 C 8.09375 11.40625 8.121094 11.269531 8.21875 11.203125 C 8.320312 11.132812 8.457031 11.160156 8.523438 11.257812 L 8.6875 11.5 L 9.257812 10.996094 C 9.351562 10.917969 9.488281 10.925781 9.566406 11.015625 C 9.648438 11.109375 9.636719 11.246094 9.546875 11.324219 L 8.792969 11.988281 C 8.785156 11.996094 8.777344 12 8.769531 12.007812 C 8.671875 12.074219 8.535156 12.050781 8.46875 11.949219 Z M 8.164062 11.503906 " fill-opacity="1" fill-rule="evenodd"/><path fill="#273e76" d="M 8.386719 8.101562 L 9.222656 8.101562 L 9.222656 6.285156 L 8.386719 6.285156 Z M 17.210938 8.101562 L 18.050781 8.101562 L 18.050781 6.285156 L 17.210938 6.285156 Z M 14.269531 8.101562 L 15.105469 8.101562 L 15.105469 6.285156 L 14.269531 6.285156 Z M 11.328125 8.101562 L 12.164062 8.101562 L 12.164062 6.285156 L 11.328125 6.285156 Z M 11.328125 8.101562 " fill-opacity="1" fill-rule="evenodd"/><path fill="#ffffff" d="M 20.1875 12.261719 C 21.289062 12.261719 22.183594 13.15625 22.183594 14.261719 C 22.183594 15.367188 21.289062 16.261719 20.1875 16.261719 C 19.082031 16.261719 18.183594 15.367188 18.183594 14.261719 C 18.183594 13.15625 19.082031 12.261719 20.1875 12.261719 Z M 20.1875 12.261719 " fill-opacity="1" fill-rule="evenodd"/><path fill="#ffffff" d="M 18.894531 16.691406 L 21.476562 16.691406 C 22.726562 16.691406 23.746094 17.710938 23.746094 18.960938 L 23.746094 20.824219 C 23.746094 21.164062 23.472656 21.441406 23.132812 21.441406 L 22.570312 21.441406 L 22.570312 19.289062 C 22.570312 19.167969 22.472656 19.070312 22.351562 19.070312 C 22.230469 19.070312 22.132812 19.167969 22.132812 19.289062 L 22.132812 21.441406 L 18.015625 21.441406 C 18.152344 21.113281 18.226562 20.75 18.226562 20.371094 C 18.226562 19.34375 17.679688 18.449219 16.859375 17.957031 C 17.230469 17.207031 18.003906 16.691406 18.894531 16.691406 Z M 18.894531 16.691406 " fill-opacity="1" fill-rule="evenodd"/><path fill="#ffffff" d="M 15.414062 17.996094 C 14.101562 17.996094 13.039062 19.058594 13.039062 20.371094 C 13.039062 21.683594 14.101562 22.746094 15.414062 22.746094 C 16.726562 22.746094 17.789062 21.683594 17.789062 20.371094 C 17.789062 19.058594 16.726562 17.996094 15.414062 17.996094 Z M 15.066406 20.589844 L 14.730469 20.589844 C 14.609375 20.589844 14.507812 20.492188 14.507812 20.371094 C 14.507812 20.25 14.609375 20.152344 14.730469 20.152344 L 15.066406 20.152344 C 15.097656 20.097656 15.140625 20.054688 15.195312 20.019531 L 15.195312 19.605469 C 15.195312 19.484375 15.292969 19.382812 15.414062 19.382812 C 15.535156 19.382812 15.632812 19.484375 15.632812 19.605469 L 15.632812 20.019531 C 15.75 20.09375 15.824219 20.222656 15.824219 20.371094 C 15.824219 20.597656 15.640625 20.78125 15.414062 20.78125 C 15.265625 20.78125 15.136719 20.707031 15.066406 20.589844 Z M 15.195312 18.8125 C 15.195312 18.691406 15.292969 18.59375 15.414062 18.59375 C 15.535156 18.59375 15.632812 18.691406 15.632812 18.8125 L 15.632812 18.859375 C 15.632812 18.980469 15.535156 19.078125 15.414062 19.078125 C 15.292969 19.078125 15.195312 18.980469 15.195312 18.859375 Z M 16.972656 20.152344 C 17.09375 20.152344 17.191406 20.25 17.191406 20.371094 C 17.191406 20.492188 17.09375 20.589844 16.972656 20.589844 L 16.925781 20.589844 C 16.804688 20.589844 16.707031 20.492188 16.707031 20.371094 C 16.707031 20.25 16.804688 20.152344 16.925781 20.152344 Z M 15.632812 21.929688 C 15.632812 22.050781 15.535156 22.148438 15.414062 22.148438 C 15.292969 22.148438 15.195312 22.050781 15.195312 21.929688 L 15.195312 21.882812 C 15.195312 21.761719 15.292969 21.664062 15.414062 21.664062 C 15.535156 21.664062 15.632812 21.761719 15.632812 21.882812 Z M 13.855469 20.589844 C 13.734375 20.589844 13.636719 20.492188 13.636719 20.371094 C 13.636719 20.25 13.734375 20.152344 13.855469 20.152344 L 13.902344 20.152344 C 14.023438 20.152344 14.121094 20.25 14.121094 20.371094 C 14.121094 20.492188 14.023438 20.589844 13.902344 20.589844 Z M 13.855469 20.589844 " fill-opacity="1" fill-rule="evenodd"/></svg>