<svg xmlns="http://www.w3.org/2000/svg" xmlns:xlink="http://www.w3.org/1999/xlink" width="40" zoomAndPan="magnify" viewBox="0 0 30 30.000001" height="40" preserveAspectRatio="xMidYMid meet" version="1.0"><defs><clipPath id="a07e7b26ab"><path d="M 1.316406 1 L 28 1 L 28 28 L 1.316406 28 Z M 1.316406 1 " clip-rule="nonzero"/></clipPath></defs><g clip-path="url(#a07e7b26ab)"><path fill="#ff073a" d="M 24.054688 5.160156 C 24.660156 5.765625 25.199219 6.421875 25.671875 7.128906 C 26.148438 7.839844 26.546875 8.589844 26.875 9.378906 C 27.203125 10.167969 27.449219 10.980469 27.613281 11.816406 C 27.78125 12.65625 27.863281 13.5 27.863281 14.355469 C 27.863281 15.207031 27.78125 16.054688 27.613281 16.890625 C 27.449219 17.726562 27.203125 18.542969 26.875 19.328125 C 26.546875 20.117188 26.148438 20.867188 25.671875 21.578125 C 25.199219 22.289062 24.660156 22.945312 24.054688 23.546875 C 23.453125 24.152344 22.796875 24.691406 22.085938 25.164062 C 21.375 25.640625 20.628906 26.039062 19.839844 26.367188 C 19.050781 26.695312 18.238281 26.941406 17.398438 27.105469 C 16.5625 27.273438 15.714844 27.355469 14.863281 27.355469 C 14.007812 27.355469 13.164062 27.273438 12.324219 27.105469 C 11.488281 26.941406 10.675781 26.695312 9.886719 26.367188 C 9.097656 26.039062 8.347656 25.640625 7.640625 25.164062 C 6.929688 24.691406 6.273438 24.152344 5.667969 23.546875 C 5.066406 22.945312 4.527344 22.289062 4.050781 21.578125 C 3.578125 20.867188 3.175781 20.117188 2.851562 19.328125 C 2.523438 18.542969 2.277344 17.726562 2.109375 16.890625 C 1.945312 16.054688 1.859375 15.207031 1.859375 14.355469 C 1.859375 13.5 1.945312 12.65625 2.109375 11.816406 C 2.277344 10.980469 2.523438 10.167969 2.851562 9.378906 C 3.175781 8.589844 3.578125 7.839844 4.050781 7.128906 C 4.527344 6.421875 5.066406 5.765625 5.667969 5.160156 C 6.273438 4.554688 6.929688 4.015625 7.640625 3.542969 C 8.347656 3.070312 9.097656 2.667969 9.886719 2.339844 C 10.675781 2.015625 11.488281 1.769531 12.324219 1.601562 C 13.164062 1.433594 14.007812 1.351562 14.863281 1.351562 C 15.714844 1.351562 16.5625 1.433594 17.398438 1.601562 C 18.238281 1.769531 19.050781 2.015625 19.839844 2.339844 C 20.628906 2.667969 21.375 3.070312 22.085938 3.542969 C 22.796875 4.015625 23.453125 4.554688 24.054688 5.160156 Z M 24.054688 5.160156 " fill-opacity="1" fill-rule="nonzero"/></g><path fill="#ff073a" d="M 9.242188 20.742188 L 15.820312 27.320312 C 21.800781 26.886719 26.660156 22.40625 27.671875 16.605469 L 19.03125 7.964844 L 9.242188 7.964844 Z M 9.242188 20.742188 " fill-opacity="1" fill-rule="evenodd"/><path fill="#ffffff" d="M 17.441406 19.152344 L 10.832031 19.152344 L 10.832031 9.558594 L 17.441406 9.558594 L 17.441406 11.28125 L 19.03125 11.28125 L 19.03125 7.964844 L 9.242188 7.964844 L 9.242188 20.742188 L 19.03125 20.742188 L 19.03125 17.429688 L 17.441406 17.429688 Z M 17.441406 19.152344 " fill-opacity="1" fill-rule="evenodd"/><path fill="#ffffff" d="M 20.222656 11.464844 L 19.097656 12.589844 L 20.09375 13.585938 L 14.191406 13.585938 L 14.191406 15.175781 L 20.09375 15.175781 L 19.097656 16.171875 L 20.222656 17.296875 L 23.140625 14.378906 Z M 20.222656 11.464844 " fill-opacity="1" fill-rule="evenodd"/></svg>